version 1
nodes
0 "root" -1
end
skeleton
time 0
0 0 0 0 0 0 0
end
triangles
door.bmp
0 37.0000 3.0000 0.0000 0 1 0 1.00000 0.00000
0 -3.0000 3.0000 0.0000 0 1 0 0.00000 0.00000
0 -3.0000 3.0000 80.0000 0 1 0 0.00000 1.00000
door.bmp
0 37.0000 3.0000 0.0000 0 1 0 1.00000 0.00000
0 -3.0000 3.0000 80.0000 0 1 0 0.00000 1.00000
0 37.0000 3.0000 80.0000 0 1 0 1.00000 1.00000
door.bmp
0 -3.0000 -3.0000 0.0000 0 -1 0 0.00000 0.00000
0 37.0000 -3.0000 0.0000 0 -1 0 1.00000 0.00000
0 37.0000 -3.0000 80.0000 0 -1 0 1.00000 1.00000
door.bmp
0 -3.0000 -3.0000 0.0000 0 -1 0 0.00000 0.00000
0 37.0000 -3.0000 80.0000 0 -1 0 1.00000 1.00000
0 -3.0000 -3.0000 80.0000 0 -1 0 0.00000 1.00000
door.bmp
0 37.0000 -3.0000 0.0000 1 0 0 0.00000 0.00000
0 37.0000 3.0000 0.0000 1 0 0 0.10000 0.00000
0 37.0000 3.0000 80.0000 1 0 0 0.10000 1.00000
door.bmp
0 37.0000 -3.0000 0.0000 1 0 0 0.00000 0.00000
0 37.0000 3.0000 80.0000 1 0 0 0.10000 1.00000
0 37.0000 -3.0000 80.0000 1 0 0 0.00000 1.00000
door.bmp
0 -3.0000 3.0000 0.0000 -1 0 0 0.10000 0.00000
0 -3.0000 -3.0000 0.0000 -1 0 0 0.00000 0.00000
0 -3.0000 -3.0000 80.0000 -1 0 0 0.00000 1.00000
door.bmp
0 -3.0000 3.0000 0.0000 -1 0 0 0.10000 0.00000
0 -3.0000 -3.0000 80.0000 -1 0 0 0.00000 1.00000
0 -3.0000 3.0000 80.0000 -1 0 0 0.10000 1.00000
door.bmp
0 -3.0000 -3.0000 80.0000 0 0 1 0.00000 1.00000
0 37.0000 -3.0000 80.0000 0 0 1 1.00000 1.00000
0 37.0000 3.0000 80.0000 0 0 1 1.00000 0.98000
door.bmp
0 -3.0000 -3.0000 80.0000 0 0 1 0.00000 1.00000
0 37.0000 3.0000 80.0000 0 0 1 1.00000 0.98000
0 -3.0000 3.0000 80.0000 0 0 1 0.00000 0.98000
door.bmp
0 -3.0000 3.0000 0.0000 0 0 -1 0.00000 0.02000
0 37.0000 3.0000 0.0000 0 0 -1 1.00000 0.02000
0 37.0000 -3.0000 0.0000 0 0 -1 1.00000 0.00000
door.bmp
0 -3.0000 3.0000 0.0000 0 0 -1 0.00000 0.02000
0 37.0000 -3.0000 0.0000 0 0 -1 1.00000 0.00000
0 -3.0000 -3.0000 0.0000 0 0 -1 0.00000 0.00000
end
