version 1
nodes
0 "root" -1
end
skeleton
time 0
0 0 0 0 0 0 0
end
triangles
grass_top.bmp
0 -20.000000 -20.000000 2.000000 0 0 1 0.000000 0.000000
0 20.000000 -20.000000 2.000000 0 0 1 1.000000 0.000000
0 20.000000 20.000000 2.000000 0 0 1 1.000000 1.000000
grass_top.bmp
0 -20.000000 -20.000000 2.000000 0 0 1 0.000000 0.000000
0 20.000000 20.000000 2.000000 0 0 1 1.000000 1.000000
0 -20.000000 20.000000 2.000000 0 0 1 0.000000 1.000000
dirt.bmp
0 -20.000000 20.000000 -2.000000 0 0 -1 0.000000 0.000000
0 20.000000 20.000000 -2.000000 0 0 -1 1.000000 0.000000
0 20.000000 -20.000000 -2.000000 0 0 -1 1.000000 1.000000
dirt.bmp
0 -20.000000 20.000000 -2.000000 0 0 -1 0.000000 0.000000
0 20.000000 -20.000000 -2.000000 0 0 -1 1.000000 1.000000
0 -20.000000 -20.000000 -2.000000 0 0 -1 0.000000 1.000000
grass_side.bmp
0 20.000000 -20.000000 -2.000000 1 0 0 0.000000 0.900000
0 20.000000 20.000000 -2.000000 1 0 0 1.000000 0.900000
0 20.000000 20.000000 2.000000 1 0 0 1.000000 1.000000
grass_side.bmp
0 20.000000 -20.000000 -2.000000 1 0 0 0.000000 0.900000
0 20.000000 20.000000 2.000000 1 0 0 1.000000 1.000000
0 20.000000 -20.000000 2.000000 1 0 0 0.000000 1.000000
grass_side.bmp
0 -20.000000 20.000000 -2.000000 -1 0 0 0.000000 0.900000
0 -20.000000 -20.000000 -2.000000 -1 0 0 1.000000 0.900000
0 -20.000000 -20.000000 2.000000 -1 0 0 1.000000 1.000000
grass_side.bmp
0 -20.000000 20.000000 -2.000000 -1 0 0 0.000000 0.900000
0 -20.000000 -20.000000 2.000000 -1 0 0 1.000000 1.000000
0 -20.000000 20.000000 2.000000 -1 0 0 0.000000 1.000000
grass_side.bmp
0 20.000000 20.000000 -2.000000 0 1 0 0.000000 0.900000
0 -20.000000 20.000000 -2.000000 0 1 0 1.000000 0.900000
0 -20.000000 20.000000 2.000000 0 1 0 1.000000 1.000000
grass_side.bmp
0 20.000000 20.000000 -2.000000 0 1 0 0.000000 0.900000
0 -20.000000 20.000000 2.000000 0 1 0 1.000000 1.000000
0 20.000000 20.000000 2.000000 0 1 0 0.000000 1.000000
grass_side.bmp
0 -20.000000 -20.000000 -2.000000 0 -1 0 0.000000 0.900000
0 20.000000 -20.000000 -2.000000 0 -1 0 1.000000 0.900000
0 20.000000 -20.000000 2.000000 0 -1 0 1.000000 1.000000
grass_side.bmp
0 -20.000000 -20.000000 -2.000000 0 -1 0 0.000000 0.900000
0 20.000000 -20.000000 2.000000 0 -1 0 1.000000 1.000000
0 -20.000000 -20.000000 2.000000 0 -1 0 0.000000 1.000000
end
