version 1
nodes
0 "root" -1
end
skeleton
time 0
0 0 0 0 0 0 0
end
triangles
paint_red.bmp
0 -80.000 -36.000 42.000 0 0 1 0 0
0 80.000 -36.000 42.000 0 0 1 1 0
0 80.000 36.000 42.000 0 0 1 1 1
paint_red.bmp
0 -80.000 -36.000 42.000 0 0 1 0 0
0 80.000 36.000 42.000 0 0 1 1 1
0 -80.000 36.000 42.000 0 0 1 0 1
paint_red.bmp
0 -80.000 36.000 14.000 0 0 -1 0 0
0 80.000 36.000 14.000 0 0 -1 1 0
0 80.000 -36.000 14.000 0 0 -1 1 1
paint_red.bmp
0 -80.000 36.000 14.000 0 0 -1 0 0
0 80.000 -36.000 14.000 0 0 -1 1 1
0 -80.000 -36.000 14.000 0 0 -1 0 1
grille.bmp
0 80.000 -36.000 14.000 1 0 0 0 0
0 80.000 36.000 14.000 1 0 0 1 0
0 80.000 36.000 42.000 1 0 0 1 1
grille.bmp
0 80.000 -36.000 14.000 1 0 0 0 0
0 80.000 36.000 42.000 1 0 0 1 1
0 80.000 -36.000 42.000 1 0 0 0 1
paint_red.bmp
0 -80.000 36.000 14.000 -1 0 0 0 0
0 -80.000 -36.000 14.000 -1 0 0 1 0
0 -80.000 -36.000 42.000 -1 0 0 1 1
paint_red.bmp
0 -80.000 36.000 14.000 -1 0 0 0 0
0 -80.000 -36.000 42.000 -1 0 0 1 1
0 -80.000 36.000 42.000 -1 0 0 0 1
paint_red.bmp
0 80.000 36.000 14.000 0 1 0 0 0
0 -80.000 36.000 14.000 0 1 0 1 0
0 -80.000 36.000 42.000 0 1 0 1 1
paint_red.bmp
0 80.000 36.000 14.000 0 1 0 0 0
0 -80.000 36.000 42.000 0 1 0 1 1
0 80.000 36.000 42.000 0 1 0 0 1
paint_red.bmp
0 -80.000 -36.000 14.000 0 -1 0 0 0
0 80.000 -36.000 14.000 0 -1 0 1 0
0 80.000 -36.000 42.000 0 -1 0 1 1
paint_red.bmp
0 -80.000 -36.000 14.000 0 -1 0 0 0
0 80.000 -36.000 42.000 0 -1 0 1 1
0 -80.000 -36.000 42.000 0 -1 0 0 1
paint_red.bmp
0 -44.000 -32.000 68.000 0 0 1 0 0
0 28.000 -32.000 68.000 0 0 1 1 0
0 28.000 32.000 68.000 0 0 1 1 1
paint_red.bmp
0 -44.000 -32.000 68.000 0 0 1 0 0
0 28.000 32.000 68.000 0 0 1 1 1
0 -44.000 32.000 68.000 0 0 1 0 1
window.bmp
0 -44.000 32.000 42.000 0 0 -1 0 0
0 28.000 32.000 42.000 0 0 -1 1 0
0 28.000 -32.000 42.000 0 0 -1 1 1
window.bmp
0 -44.000 32.000 42.000 0 0 -1 0 0
0 28.000 -32.000 42.000 0 0 -1 1 1
0 -44.000 -32.000 42.000 0 0 -1 0 1
window.bmp
0 28.000 -32.000 42.000 1 0 0 0 0
0 28.000 32.000 42.000 1 0 0 1 0
0 28.000 32.000 68.000 1 0 0 1 1
window.bmp
0 28.000 -32.000 42.000 1 0 0 0 0
0 28.000 32.000 68.000 1 0 0 1 1
0 28.000 -32.000 68.000 1 0 0 0 1
window.bmp
0 -44.000 32.000 42.000 -1 0 0 0 0
0 -44.000 -32.000 42.000 -1 0 0 1 0
0 -44.000 -32.000 68.000 -1 0 0 1 1
window.bmp
0 -44.000 32.000 42.000 -1 0 0 0 0
0 -44.000 -32.000 68.000 -1 0 0 1 1
0 -44.000 32.000 68.000 -1 0 0 0 1
window.bmp
0 28.000 32.000 42.000 0 1 0 0 0
0 -44.000 32.000 42.000 0 1 0 1 0
0 -44.000 32.000 68.000 0 1 0 1 1
window.bmp
0 28.000 32.000 42.000 0 1 0 0 0
0 -44.000 32.000 68.000 0 1 0 1 1
0 28.000 32.000 68.000 0 1 0 0 1
window.bmp
0 -44.000 -32.000 42.000 0 -1 0 0 0
0 28.000 -32.000 42.000 0 -1 0 1 0
0 28.000 -32.000 68.000 0 -1 0 1 1
window.bmp
0 -44.000 -32.000 42.000 0 -1 0 0 0
0 28.000 -32.000 68.000 0 -1 0 1 1
0 -44.000 -32.000 68.000 0 -1 0 0 1
tire.bmp
0 -62.000 36.000 24.000 0 0 1 0 0
0 -38.000 36.000 24.000 0 0 1 1 0
0 -38.000 44.000 24.000 0 0 1 1 1
tire.bmp
0 -62.000 36.000 24.000 0 0 1 0 0
0 -38.000 44.000 24.000 0 0 1 1 1
0 -62.000 44.000 24.000 0 0 1 0 1
tire.bmp
0 -62.000 44.000 0.000 0 0 -1 0 0
0 -38.000 44.000 0.000 0 0 -1 1 0
0 -38.000 36.000 0.000 0 0 -1 1 1
tire.bmp
0 -62.000 44.000 0.000 0 0 -1 0 0
0 -38.000 36.000 0.000 0 0 -1 1 1
0 -62.000 36.000 0.000 0 0 -1 0 1
tire.bmp
0 -38.000 36.000 0.000 1 0 0 0 0
0 -38.000 44.000 0.000 1 0 0 1 0
0 -38.000 44.000 24.000 1 0 0 1 1
tire.bmp
0 -38.000 36.000 0.000 1 0 0 0 0
0 -38.000 44.000 24.000 1 0 0 1 1
0 -38.000 36.000 24.000 1 0 0 0 1
tire.bmp
0 -62.000 44.000 0.000 -1 0 0 0 0
0 -62.000 36.000 0.000 -1 0 0 1 0
0 -62.000 36.000 24.000 -1 0 0 1 1
tire.bmp
0 -62.000 44.000 0.000 -1 0 0 0 0
0 -62.000 36.000 24.000 -1 0 0 1 1
0 -62.000 44.000 24.000 -1 0 0 0 1
tire.bmp
0 -38.000 44.000 0.000 0 1 0 0 0
0 -62.000 44.000 0.000 0 1 0 1 0
0 -62.000 44.000 24.000 0 1 0 1 1
tire.bmp
0 -38.000 44.000 0.000 0 1 0 0 0
0 -62.000 44.000 24.000 0 1 0 1 1
0 -38.000 44.000 24.000 0 1 0 0 1
tire.bmp
0 -62.000 36.000 0.000 0 -1 0 0 0
0 -38.000 36.000 0.000 0 -1 0 1 0
0 -38.000 36.000 24.000 0 -1 0 1 1
tire.bmp
0 -62.000 36.000 0.000 0 -1 0 0 0
0 -38.000 36.000 24.000 0 -1 0 1 1
0 -62.000 36.000 24.000 0 -1 0 0 1
tire.bmp
0 -62.000 -44.000 24.000 0 0 1 0 0
0 -38.000 -44.000 24.000 0 0 1 1 0
0 -38.000 -36.000 24.000 0 0 1 1 1
tire.bmp
0 -62.000 -44.000 24.000 0 0 1 0 0
0 -38.000 -36.000 24.000 0 0 1 1 1
0 -62.000 -36.000 24.000 0 0 1 0 1
tire.bmp
0 -62.000 -36.000 0.000 0 0 -1 0 0
0 -38.000 -36.000 0.000 0 0 -1 1 0
0 -38.000 -44.000 0.000 0 0 -1 1 1
tire.bmp
0 -62.000 -36.000 0.000 0 0 -1 0 0
0 -38.000 -44.000 0.000 0 0 -1 1 1
0 -62.000 -44.000 0.000 0 0 -1 0 1
tire.bmp
0 -38.000 -44.000 0.000 1 0 0 0 0
0 -38.000 -36.000 0.000 1 0 0 1 0
0 -38.000 -36.000 24.000 1 0 0 1 1
tire.bmp
0 -38.000 -44.000 0.000 1 0 0 0 0
0 -38.000 -36.000 24.000 1 0 0 1 1
0 -38.000 -44.000 24.000 1 0 0 0 1
tire.bmp
0 -62.000 -36.000 0.000 -1 0 0 0 0
0 -62.000 -44.000 0.000 -1 0 0 1 0
0 -62.000 -44.000 24.000 -1 0 0 1 1
tire.bmp
0 -62.000 -36.000 0.000 -1 0 0 0 0
0 -62.000 -44.000 24.000 -1 0 0 1 1
0 -62.000 -36.000 24.000 -1 0 0 0 1
tire.bmp
0 -38.000 -36.000 0.000 0 1 0 0 0
0 -62.000 -36.000 0.000 0 1 0 1 0
0 -62.000 -36.000 24.000 0 1 0 1 1
tire.bmp
0 -38.000 -36.000 0.000 0 1 0 0 0
0 -62.000 -36.000 24.000 0 1 0 1 1
0 -38.000 -36.000 24.000 0 1 0 0 1
tire.bmp
0 -62.000 -44.000 0.000 0 -1 0 0 0
0 -38.000 -44.000 0.000 0 -1 0 1 0
0 -38.000 -44.000 24.000 0 -1 0 1 1
tire.bmp
0 -62.000 -44.000 0.000 0 -1 0 0 0
0 -38.000 -44.000 24.000 0 -1 0 1 1
0 -62.000 -44.000 24.000 0 -1 0 0 1
tire.bmp
0 38.000 36.000 24.000 0 0 1 0 0
0 62.000 36.000 24.000 0 0 1 1 0
0 62.000 44.000 24.000 0 0 1 1 1
tire.bmp
0 38.000 36.000 24.000 0 0 1 0 0
0 62.000 44.000 24.000 0 0 1 1 1
0 38.000 44.000 24.000 0 0 1 0 1
tire.bmp
0 38.000 44.000 0.000 0 0 -1 0 0
0 62.000 44.000 0.000 0 0 -1 1 0
0 62.000 36.000 0.000 0 0 -1 1 1
tire.bmp
0 38.000 44.000 0.000 0 0 -1 0 0
0 62.000 36.000 0.000 0 0 -1 1 1
0 38.000 36.000 0.000 0 0 -1 0 1
tire.bmp
0 62.000 36.000 0.000 1 0 0 0 0
0 62.000 44.000 0.000 1 0 0 1 0
0 62.000 44.000 24.000 1 0 0 1 1
tire.bmp
0 62.000 36.000 0.000 1 0 0 0 0
0 62.000 44.000 24.000 1 0 0 1 1
0 62.000 36.000 24.000 1 0 0 0 1
tire.bmp
0 38.000 44.000 0.000 -1 0 0 0 0
0 38.000 36.000 0.000 -1 0 0 1 0
0 38.000 36.000 24.000 -1 0 0 1 1
tire.bmp
0 38.000 44.000 0.000 -1 0 0 0 0
0 38.000 36.000 24.000 -1 0 0 1 1
0 38.000 44.000 24.000 -1 0 0 0 1
tire.bmp
0 62.000 44.000 0.000 0 1 0 0 0
0 38.000 44.000 0.000 0 1 0 1 0
0 38.000 44.000 24.000 0 1 0 1 1
tire.bmp
0 62.000 44.000 0.000 0 1 0 0 0
0 38.000 44.000 24.000 0 1 0 1 1
0 62.000 44.000 24.000 0 1 0 0 1
tire.bmp
0 38.000 36.000 0.000 0 -1 0 0 0
0 62.000 36.000 0.000 0 -1 0 1 0
0 62.000 36.000 24.000 0 -1 0 1 1
tire.bmp
0 38.000 36.000 0.000 0 -1 0 0 0
0 62.000 36.000 24.000 0 -1 0 1 1
0 38.000 36.000 24.000 0 -1 0 0 1
tire.bmp
0 38.000 -44.000 24.000 0 0 1 0 0
0 62.000 -44.000 24.000 0 0 1 1 0
0 62.000 -36.000 24.000 0 0 1 1 1
tire.bmp
0 38.000 -44.000 24.000 0 0 1 0 0
0 62.000 -36.000 24.000 0 0 1 1 1
0 38.000 -36.000 24.000 0 0 1 0 1
tire.bmp
0 38.000 -36.000 0.000 0 0 -1 0 0
0 62.000 -36.000 0.000 0 0 -1 1 0
0 62.000 -44.000 0.000 0 0 -1 1 1
tire.bmp
0 38.000 -36.000 0.000 0 0 -1 0 0
0 62.000 -44.000 0.000 0 0 -1 1 1
0 38.000 -44.000 0.000 0 0 -1 0 1
tire.bmp
0 62.000 -44.000 0.000 1 0 0 0 0
0 62.000 -36.000 0.000 1 0 0 1 0
0 62.000 -36.000 24.000 1 0 0 1 1
tire.bmp
0 62.000 -44.000 0.000 1 0 0 0 0
0 62.000 -36.000 24.000 1 0 0 1 1
0 62.000 -44.000 24.000 1 0 0 0 1
tire.bmp
0 38.000 -36.000 0.000 -1 0 0 0 0
0 38.000 -44.000 0.000 -1 0 0 1 0
0 38.000 -44.000 24.000 -1 0 0 1 1
tire.bmp
0 38.000 -36.000 0.000 -1 0 0 0 0
0 38.000 -44.000 24.000 -1 0 0 1 1
0 38.000 -36.000 24.000 -1 0 0 0 1
tire.bmp
0 62.000 -36.000 0.000 0 1 0 0 0
0 38.000 -36.000 0.000 0 1 0 1 0
0 38.000 -36.000 24.000 0 1 0 1 1
tire.bmp
0 62.000 -36.000 0.000 0 1 0 0 0
0 38.000 -36.000 24.000 0 1 0 1 1
0 62.000 -36.000 24.000 0 1 0 0 1
tire.bmp
0 38.000 -44.000 0.000 0 -1 0 0 0
0 62.000 -44.000 0.000 0 -1 0 1 0
0 62.000 -44.000 24.000 0 -1 0 1 1
tire.bmp
0 38.000 -44.000 0.000 0 -1 0 0 0
0 62.000 -44.000 24.000 0 -1 0 1 1
0 38.000 -44.000 24.000 0 -1 0 0 1
headlight.bmp
0 80.000 18.000 38.000 0 0 1 0 0
0 82.000 18.000 38.000 0 0 1 1 0
0 82.000 30.000 38.000 0 0 1 1 1
headlight.bmp
0 80.000 18.000 38.000 0 0 1 0 0
0 82.000 30.000 38.000 0 0 1 1 1
0 80.000 30.000 38.000 0 0 1 0 1
headlight.bmp
0 80.000 30.000 30.000 0 0 -1 0 0
0 82.000 30.000 30.000 0 0 -1 1 0
0 82.000 18.000 30.000 0 0 -1 1 1
headlight.bmp
0 80.000 30.000 30.000 0 0 -1 0 0
0 82.000 18.000 30.000 0 0 -1 1 1
0 80.000 18.000 30.000 0 0 -1 0 1
headlight.bmp
0 82.000 18.000 30.000 1 0 0 0 0
0 82.000 30.000 30.000 1 0 0 1 0
0 82.000 30.000 38.000 1 0 0 1 1
headlight.bmp
0 82.000 18.000 30.000 1 0 0 0 0
0 82.000 30.000 38.000 1 0 0 1 1
0 82.000 18.000 38.000 1 0 0 0 1
headlight.bmp
0 80.000 30.000 30.000 -1 0 0 0 0
0 80.000 18.000 30.000 -1 0 0 1 0
0 80.000 18.000 38.000 -1 0 0 1 1
headlight.bmp
0 80.000 30.000 30.000 -1 0 0 0 0
0 80.000 18.000 38.000 -1 0 0 1 1
0 80.000 30.000 38.000 -1 0 0 0 1
headlight.bmp
0 82.000 30.000 30.000 0 1 0 0 0
0 80.000 30.000 30.000 0 1 0 1 0
0 80.000 30.000 38.000 0 1 0 1 1
headlight.bmp
0 82.000 30.000 30.000 0 1 0 0 0
0 80.000 30.000 38.000 0 1 0 1 1
0 82.000 30.000 38.000 0 1 0 0 1
headlight.bmp
0 80.000 18.000 30.000 0 -1 0 0 0
0 82.000 18.000 30.000 0 -1 0 1 0
0 82.000 18.000 38.000 0 -1 0 1 1
headlight.bmp
0 80.000 18.000 30.000 0 -1 0 0 0
0 82.000 18.000 38.000 0 -1 0 1 1
0 80.000 18.000 38.000 0 -1 0 0 1
taillight.bmp
0 -82.000 18.000 38.000 0 0 1 0 0
0 -80.000 18.000 38.000 0 0 1 1 0
0 -80.000 30.000 38.000 0 0 1 1 1
taillight.bmp
0 -82.000 18.000 38.000 0 0 1 0 0
0 -80.000 30.000 38.000 0 0 1 1 1
0 -82.000 30.000 38.000 0 0 1 0 1
taillight.bmp
0 -82.000 30.000 30.000 0 0 -1 0 0
0 -80.000 30.000 30.000 0 0 -1 1 0
0 -80.000 18.000 30.000 0 0 -1 1 1
taillight.bmp
0 -82.000 30.000 30.000 0 0 -1 0 0
0 -80.000 18.000 30.000 0 0 -1 1 1
0 -82.000 18.000 30.000 0 0 -1 0 1
taillight.bmp
0 -80.000 18.000 30.000 1 0 0 0 0
0 -80.000 30.000 30.000 1 0 0 1 0
0 -80.000 30.000 38.000 1 0 0 1 1
taillight.bmp
0 -80.000 18.000 30.000 1 0 0 0 0
0 -80.000 30.000 38.000 1 0 0 1 1
0 -80.000 18.000 38.000 1 0 0 0 1
taillight.bmp
0 -82.000 30.000 30.000 -1 0 0 0 0
0 -82.000 18.000 30.000 -1 0 0 1 0
0 -82.000 18.000 38.000 -1 0 0 1 1
taillight.bmp
0 -82.000 30.000 30.000 -1 0 0 0 0
0 -82.000 18.000 38.000 -1 0 0 1 1
0 -82.000 30.000 38.000 -1 0 0 0 1
taillight.bmp
0 -80.000 30.000 30.000 0 1 0 0 0
0 -82.000 30.000 30.000 0 1 0 1 0
0 -82.000 30.000 38.000 0 1 0 1 1
taillight.bmp
0 -80.000 30.000 30.000 0 1 0 0 0
0 -82.000 30.000 38.000 0 1 0 1 1
0 -80.000 30.000 38.000 0 1 0 0 1
taillight.bmp
0 -82.000 18.000 30.000 0 -1 0 0 0
0 -80.000 18.000 30.000 0 -1 0 1 0
0 -80.000 18.000 38.000 0 -1 0 1 1
taillight.bmp
0 -82.000 18.000 30.000 0 -1 0 0 0
0 -80.000 18.000 38.000 0 -1 0 1 1
0 -82.000 18.000 38.000 0 -1 0 0 1
headlight.bmp
0 80.000 -30.000 38.000 0 0 1 0 0
0 82.000 -30.000 38.000 0 0 1 1 0
0 82.000 -18.000 38.000 0 0 1 1 1
headlight.bmp
0 80.000 -30.000 38.000 0 0 1 0 0
0 82.000 -18.000 38.000 0 0 1 1 1
0 80.000 -18.000 38.000 0 0 1 0 1
headlight.bmp
0 80.000 -18.000 30.000 0 0 -1 0 0
0 82.000 -18.000 30.000 0 0 -1 1 0
0 82.000 -30.000 30.000 0 0 -1 1 1
headlight.bmp
0 80.000 -18.000 30.000 0 0 -1 0 0
0 82.000 -30.000 30.000 0 0 -1 1 1
0 80.000 -30.000 30.000 0 0 -1 0 1
headlight.bmp
0 82.000 -30.000 30.000 1 0 0 0 0
0 82.000 -18.000 30.000 1 0 0 1 0
0 82.000 -18.000 38.000 1 0 0 1 1
headlight.bmp
0 82.000 -30.000 30.000 1 0 0 0 0
0 82.000 -18.000 38.000 1 0 0 1 1
0 82.000 -30.000 38.000 1 0 0 0 1
headlight.bmp
0 80.000 -18.000 30.000 -1 0 0 0 0
0 80.000 -30.000 30.000 -1 0 0 1 0
0 80.000 -30.000 38.000 -1 0 0 1 1
headlight.bmp
0 80.000 -18.000 30.000 -1 0 0 0 0
0 80.000 -30.000 38.000 -1 0 0 1 1
0 80.000 -18.000 38.000 -1 0 0 0 1
headlight.bmp
0 82.000 -18.000 30.000 0 1 0 0 0
0 80.000 -18.000 30.000 0 1 0 1 0
0 80.000 -18.000 38.000 0 1 0 1 1
headlight.bmp
0 82.000 -18.000 30.000 0 1 0 0 0
0 80.000 -18.000 38.000 0 1 0 1 1
0 82.000 -18.000 38.000 0 1 0 0 1
headlight.bmp
0 80.000 -30.000 30.000 0 -1 0 0 0
0 82.000 -30.000 30.000 0 -1 0 1 0
0 82.000 -30.000 38.000 0 -1 0 1 1
headlight.bmp
0 80.000 -30.000 30.000 0 -1 0 0 0
0 82.000 -30.000 38.000 0 -1 0 1 1
0 80.000 -30.000 38.000 0 -1 0 0 1
taillight.bmp
0 -82.000 -30.000 38.000 0 0 1 0 0
0 -80.000 -30.000 38.000 0 0 1 1 0
0 -80.000 -18.000 38.000 0 0 1 1 1
taillight.bmp
0 -82.000 -30.000 38.000 0 0 1 0 0
0 -80.000 -18.000 38.000 0 0 1 1 1
0 -82.000 -18.000 38.000 0 0 1 0 1
taillight.bmp
0 -82.000 -18.000 30.000 0 0 -1 0 0
0 -80.000 -18.000 30.000 0 0 -1 1 0
0 -80.000 -30.000 30.000 0 0 -1 1 1
taillight.bmp
0 -82.000 -18.000 30.000 0 0 -1 0 0
0 -80.000 -30.000 30.000 0 0 -1 1 1
0 -82.000 -30.000 30.000 0 0 -1 0 1
taillight.bmp
0 -80.000 -30.000 30.000 1 0 0 0 0
0 -80.000 -18.000 30.000 1 0 0 1 0
0 -80.000 -18.000 38.000 1 0 0 1 1
taillight.bmp
0 -80.000 -30.000 30.000 1 0 0 0 0
0 -80.000 -18.000 38.000 1 0 0 1 1
0 -80.000 -30.000 38.000 1 0 0 0 1
taillight.bmp
0 -82.000 -18.000 30.000 -1 0 0 0 0
0 -82.000 -30.000 30.000 -1 0 0 1 0
0 -82.000 -30.000 38.000 -1 0 0 1 1
taillight.bmp
0 -82.000 -18.000 30.000 -1 0 0 0 0
0 -82.000 -30.000 38.000 -1 0 0 1 1
0 -82.000 -18.000 38.000 -1 0 0 0 1
taillight.bmp
0 -80.000 -18.000 30.000 0 1 0 0 0
0 -82.000 -18.000 30.000 0 1 0 1 0
0 -82.000 -18.000 38.000 0 1 0 1 1
taillight.bmp
0 -80.000 -18.000 30.000 0 1 0 0 0
0 -82.000 -18.000 38.000 0 1 0 1 1
0 -80.000 -18.000 38.000 0 1 0 0 1
taillight.bmp
0 -82.000 -30.000 30.000 0 -1 0 0 0
0 -80.000 -30.000 30.000 0 -1 0 1 0
0 -80.000 -30.000 38.000 0 -1 0 1 1
taillight.bmp
0 -82.000 -30.000 30.000 0 -1 0 0 0
0 -80.000 -30.000 38.000 0 -1 0 1 1
0 -82.000 -30.000 38.000 0 -1 0 0 1
end
